<svg xmlns="http://www.w3.org/2000/svg" viewBox="0 0 512 512" width="512" height="512">
	<style>
		tspan { white-space:pre }
		.shp0 { fill: #95a8b8 } 
	</style>
	<g id="Layer">
		<g id="Layer">
			<path id="Layer" class="shp0" d="M408.3 98.51L375.66 470.49L136.34 470.49L103.71 98.51L62.35 102.14L95.59 480.86C97.33 498.31 112.48 512 130.08 512L381.92 512C399.51 512 414.66 498.32 416.44 480.61L449.65 102.14L408.3 98.51Z" />
		</g>
	</g>
	<g id="Layer">
		<g id="Layer">
			<path id="Layer" class="shp0" d="M332.11 0L179.89 0C160.82 0 145.3 15.52 145.3 34.59L145.3 100.33L186.81 100.33L186.81 41.51L325.19 41.51L325.19 100.32L366.7 100.32L366.7 34.59C366.7 15.52 351.18 0 332.11 0Z" />
		</g>
	</g>
	<g id="Layer">
		<g id="Layer">
			<path id="Layer" class="shp0" d="M477.4 79.57L34.59 79.57C23.13 79.57 13.84 88.86 13.84 100.33C13.84 111.79 23.13 121.08 34.59 121.08L477.41 121.08C488.87 121.08 498.16 111.79 498.16 100.33C498.16 88.86 488.87 79.57 477.4 79.57Z" />
		</g>
	</g>
</svg>