<svg xmlns="http://www.w3.org/2000/svg" viewBox="0 0 485 484" width="485" height="484">
	<style>
		tspan { white-space:pre }
		.shp0 { fill: #95a8b8 } 
	</style>
	<path id="Layer" fill-rule="evenodd" class="shp0" d="M450.49 66.95C474.84 91.34 474.84 130.84 450.49 155.24L193.12 412.61C192.99 412.86 192.74 412.98 192.61 413.11C192.61 413.23 192.49 413.23 192.37 413.36C191.99 413.61 191.61 413.98 191.24 414.23C190.87 414.48 190.37 414.73 190 414.98C189.93 415.05 189.84 415.09 189.74 415.11C189.39 415.32 189.02 415.49 188.62 415.61C188.49 415.73 188.49 415.73 188.37 415.73L31.52 468.05C30.23 468.45 28.88 468.66 27.53 468.68C24.21 468.69 21.02 467.39 18.66 465.05C15.3 461.74 14.13 456.79 15.66 452.32L67.86 295.35C67.86 295.22 67.98 295.22 67.98 295.1C68.11 294.73 68.24 294.48 68.36 294.1C68.49 293.97 68.49 293.85 68.61 293.73C68.86 293.35 68.98 293.1 69.23 292.73C69.23 292.6 69.36 292.6 69.36 292.48C69.61 292.1 69.98 291.73 70.23 291.36C70.36 291.36 70.36 291.23 70.48 291.11L70.98 290.6L306.25 55.46L328.36 33.23C352.75 8.88 392.25 8.88 416.65 33.23L450.49 66.95ZM401.91 168.85L315 81.94L97.46 299.47L184.38 386.38L401.91 168.85ZM47.13 436.46L161.15 398.5L85.22 322.57L47.13 436.46ZM433 84.8L399.04 50.84C384.41 36.23 360.71 36.23 346.09 50.84L332.73 64.2L419.64 151.12L432.88 137.75C447.46 123.14 447.52 99.49 433 84.8Z" />
</svg>