<svg xmlns="http://www.w3.org/2000/svg" viewBox="0 0 512 512" width="512" height="512">
	<style>
		tspan { white-space:pre }
		.shp0 { fill: #95a8b8 } 
	</style>
	<g id="Layer">
		<g id="Layer">
			<path id="Layer" fill-rule="evenodd" class="shp0" d="M505.75 505.75C501.59 509.91 496.13 512 490.67 512C485.2 512 479.74 509.91 475.58 505.75L329.98 360.15C295.15 388.35 250.88 405.34 202.67 405.34C90.92 405.34 0 314.41 0 202.67C0 90.92 90.92 0 202.67 0C314.41 0 405.33 90.93 405.33 202.67C405.33 250.88 388.35 295.15 360.15 329.99L505.75 475.59C514.09 483.93 514.09 497.41 505.75 505.75ZM362.67 202.67C362.67 114.43 290.9 42.67 202.67 42.67C114.43 42.67 42.67 114.43 42.67 202.67C42.67 290.9 114.43 362.67 202.67 362.67C290.9 362.67 362.67 290.9 362.67 202.67Z" />
		</g>
	</g>
</svg>