<svg xmlns="http://www.w3.org/2000/svg" viewBox="0 0 512 327" width="512" height="327">
	<style>
		tspan { white-space:pre }
		.shp0 { fill: #000000 } 
	</style>
	<g id="Layer">
		<path id="Layer" fill-rule="evenodd" class="shp0" d="M436.12 78.45C480.58 116.19 507.98 153.52 509.12 155.09C512.96 160.35 512.96 167.49 509.12 172.75C507.98 174.33 480.58 211.65 436.12 249.4C385.09 292.71 322.68 327 256 327C189.34 327 126.93 292.73 75.88 249.4C31.42 211.65 4.02 174.33 2.88 172.75C-0.96 167.49 -0.96 160.35 2.88 155.09C4.02 153.52 31.42 116.19 75.88 78.45C126.91 35.13 189.32 0.84 256 0.84C322.66 0.84 385.07 35.11 436.12 78.45ZM477.96 163.92C467.48 151 445.63 125.79 416.19 100.88C378.43 68.93 319.99 30.84 256 30.84C192.01 30.84 133.57 68.93 95.81 100.88C66.37 125.79 44.52 151 34.04 163.92C44.52 176.84 66.37 202.05 95.81 226.96C133.57 258.91 192.01 297 256 297C319.99 297 378.43 258.91 416.19 226.96C445.63 202.05 467.48 176.84 477.96 163.92Z" />
		<path id="Layer" fill-rule="evenodd" class="shp0" d="M343.65 163.92C343.65 212.25 304.33 251.57 256 251.57C207.67 251.57 168.35 212.25 168.35 163.92C168.35 115.59 207.67 76.28 256 76.28C304.33 76.28 343.65 115.59 343.65 163.92ZM313.65 163.92C313.65 132.14 287.79 106.28 256 106.28C224.21 106.28 198.35 132.14 198.35 163.92C198.35 195.71 224.21 221.57 256 221.57C287.79 221.57 313.65 195.71 313.65 163.92Z" />
	</g>
</svg>